<?xml version="1.0" encoding="UTF-8"?><svg xmlns="http://www.w3.org/2000/svg" xmlns:xlink="http://www.w3.org/1999/xlink" viewBox="0 0 238.84 239.91"><defs><style>.k{fill:#fff;fill-rule:evenodd;}.l{fill:url(#f);}.m{filter:url(#d);}.n{fill:url(#h);}</style><filter id="d" filterUnits="userSpaceOnUse"><feOffset dx="0" dy="13.16"/><feGaussianBlur result="e" stdDeviation="9.87"/><feFlood flood-color="#000" flood-opacity=".25"/><feComposite in2="e" operator="in"/><feComposite in="SourceGraphic"/></filter><linearGradient id="f" x1="119.42" y1="235.76" x2="119.42" y2="4.15" gradientTransform="matrix(1, 0, 0, 1, 0, 0)" gradientUnits="userSpaceOnUse"><stop offset="0" stop-color="#20b038"/><stop offset="1" stop-color="#60d66a"/></linearGradient><linearGradient id="h" x1="119.42" y1="239.91" x2="119.42" y2="0" gradientTransform="matrix(1, 0, 0, 1, 0, 0)" gradientUnits="userSpaceOnUse"><stop offset="0" stop-color="#f9f9f9"/><stop offset="1" stop-color="#fff"/></linearGradient></defs><g id="a"/><g id="b"><g id="c"><g class="m"><path id="g" class="l" d="M4.14,235.76l16.29-59.47c-10.05-17.4-15.33-37.15-15.33-57.37C5.12,55.63,56.62,4.15,119.9,4.15c30.71,.01,59.53,11.97,81.21,33.66,21.68,21.69,33.61,50.53,33.59,81.19-.03,63.28-51.53,114.76-114.8,114.76,0,0,0,0,0,0h-.05c-19.21,0-38.09-4.83-54.86-13.97l-60.86,15.96Z"/><path id="i" class="n" d="M0,239.91l16.87-61.6C6.46,160.28,.99,139.82,1,118.87,1.02,53.33,54.37,0,119.92,0c31.81,.01,61.67,12.39,84.12,34.86,22.45,22.47,34.81,52.34,34.8,84.11-.03,65.54-53.38,118.88-118.92,118.88,0,0,0,0,0,0h-.05c-19.9,0-39.46-5-56.83-14.47L0,239.91Zm65.96-38.05l3.61,2.14c15.17,9,32.57,13.77,50.31,13.78h.04c54.48,0,98.82-44.33,98.84-98.81,0-26.4-10.26-51.23-28.92-69.9-18.66-18.68-43.48-28.97-69.88-28.98-54.52,0-98.86,44.32-98.88,98.8,0,18.67,5.22,36.85,15.11,52.58l2.35,3.74-9.99,36.46,37.41-9.81Z"/><path id="j" class="k" d="M90.2,69.18c-2.23-4.95-4.57-5.05-6.69-5.13-1.73-.07-3.71-.07-5.69-.07s-5.2,.74-7.92,3.72c-2.72,2.97-10.4,10.16-10.4,24.78s10.65,28.75,12.13,30.73c1.49,1.98,20.56,32.94,50.76,44.85,25.1,9.9,30.21,7.93,35.66,7.43,5.45-.5,17.58-7.19,20.06-14.12,2.48-6.94,2.48-12.88,1.73-14.13-.74-1.24-2.72-1.98-5.7-3.47-2.97-1.49-17.58-8.68-20.3-9.67-2.72-.99-4.71-1.49-6.69,1.49-1.98,2.97-7.67,9.66-9.41,11.64-1.73,1.99-3.47,2.23-6.44,.75-2.97-1.49-12.54-4.62-23.89-14.75-8.83-7.88-14.8-17.6-16.53-20.58-1.73-2.97-.19-4.58,1.3-6.06,1.33-1.33,2.97-3.47,4.46-5.2,1.48-1.74,1.98-2.97,2.97-4.95,.99-1.98,.5-3.72-.25-5.21-.74-1.49-6.52-16.18-9.16-22.06Z"/></g></g></g></svg>