<?xml version="1.0" encoding="utf-8"?>
<!-- Generator: Adobe Illustrator 26.2.1, SVG Export Plug-In . SVG Version: 6.00 Build 0)  -->
<svg version="1.1" id="Camada_1" xmlns="http://www.w3.org/2000/svg" xmlns:xlink="http://www.w3.org/1999/xlink" x="0px" y="0px"
	 viewBox="0 0 83.4 68.1" style="enable-background:new 0 0 83.4 68.1;" xml:space="preserve">
<style type="text/css">
	.st0{fill:#FFFFFF;}
	.st1{fill:#68A318;}
</style>
<g>
	<g>
		<path class="st0" d="M41.7,0C26.1,0,13.5,12.7,13.5,28.2c0,2.2,0.3,4.4,0.8,6.5c0.6-0.1,1.1-0.3,1.7-0.4c0.2-0.1,0.4-0.1,0.7-0.2
			l1.2-0.2c0.6-0.1,1.8-0.2,2.5-0.2c-0.3,3.5,0.5,8,4.7,10.2c1.4,0.7,3,1.1,4.5,1.1c2.3,0,4.6-0.8,6.4-2.3c2.1-1.7,3.4-4.1,3.7-6.9
			c0.5-0.3,1.2-0.5,2.1-0.5s1.6,0.2,2.1,0.5c0.3,2.7,1.6,5.2,3.7,6.9c1.9,1.5,4.1,2.3,6.4,2.3c1.5,0,3.1-0.4,4.5-1.1
			c4.3-2.2,5-6.6,4.7-10.2c0.8,0,1.9,0.2,2.5,0.2l0.9,0c1,0.2,2.7,0.6,2.6,0.7c0.5-0.7,0.5-2.1,0.6-3c0.1-1.1,0.2-2.2,0.2-3.3
			C69.9,12.7,57.2,0,41.7,0z M27.5,42.5c-0.6-0.1-1.1-0.3-1.6-0.6c-0.7-0.3-1.2-0.8-1.7-1.2c-0.5-0.5-0.9-1-1.2-1.6
			c-0.3-0.6-0.5-1.3-0.6-1.9c-0.6-3.1,0.4-6.3,0.4-6.3c2.2-0.8,4.6-1,6.8-1c0.8,0,1.6,0.1,2.3,0.2c0.9,0.1,1.7,0.3,2.4,0.4
			c1.8,0.4,2.9,0.9,2.9,0.9c0.1,0.4,0.2,0.8,0.2,1.1l0,0C38.7,39.7,32.8,43.9,27.5,42.5L27.5,42.5z M61,37.2
			c-0.1,0.7-0.3,1.3-0.6,1.9c-0.3,0.6-0.7,1.1-1.2,1.6c-0.5,0.5-1,0.9-1.7,1.2c-0.5,0.3-1.1,0.5-1.7,0.6c-5.2,1.3-11.2-2.9-10-10
			l0,0c0.1-0.4,0.1-0.8,0.2-1.1c0,0,1.1-0.5,2.9-0.9c0.7-0.2,1.5-0.3,2.4-0.4c0.7-0.1,1.5-0.2,2.3-0.2c2.2-0.1,4.5,0.1,6.8,1
			C60.5,30.9,61.6,34.1,61,37.2z M55.4,27.9c-0.2,0-0.3,0-0.5,0h-0.1c-1.7,0-3.3,0.2-4.7,0.4l0,0c-0.2,0-0.4,0.1-0.7,0.1
			c-2.5,0.5-5,0.9-6.4,1.2c-0.9,0.2-1.8,0.2-2.7,0c-1.4-0.3-4-0.7-6.4-1.2c-0.2,0-0.4-0.1-0.7-0.1l0,0c-1.4-0.2-3-0.4-4.7-0.4h-0.1
			c-0.1,0-0.3,0-0.5,0c-1.9,0-8.3,0.3-10.7,1.3c0,0-0.1,0-0.1,0.1c0.4-1.7,1-3.3,1.8-4.9c0.3-0.5,4.1-7,4.5-6.6c0,0,1.3,1.4,0,5.4
			c0,0,2.4-2.4,2.4-7.3c0,0,0.7,4.3,3.8,5.3c0,0-1.3-4.4-1.3-7.2v-0.9c3.7,1.2,7.1,3.3,9.6,6.3c2.5,2.9,6.5,6.3,12,7.2l-3.3-4.8
			c0,0,3.7,3.1,7.7,4.8l-3-6.9c0,0,3.2,4.6,9.4,7.6c0,0-1-5.5-1-5.5c0.1,0.4,1.7,1.3,2,1.6c1.7,1.4,2.9,2.8,3.6,5
			c0.1,0.2,0.1,0.5,0.2,0.7C63,28.2,57.2,27.9,55.4,27.9L55.4,27.9z"/>
		<g>
			<path class="st1" d="M82,21.6c-1.7,0-2.5-1-2.5-3.2V6.6c0-4.4-2.2-6.2-7.6-6.2h-1.5v3.4c3.8,0,5.3,1.2,5.3,4v10.4
				c0,3,0.8,4.5,3.1,5.2c-2.2,0.6-3.1,2.1-3.1,5.2v10.3c0,2.8-1.5,4-5.3,4v3.4h1.5c5.3,0,7.6-1.8,7.6-6.2V28.2
				c0-2.2,0.8-3.2,2.5-3.2h1.4v-3.5L82,21.6L82,21.6z"/>
			<path class="st1" d="M3.9,6.6v11.8c0,2.2-0.8,3.2-2.5,3.2H0v3.5h1.4c1.7,0,2.5,1,2.5,3.2V40c0,4.4,2.2,6.2,7.6,6.2h1.5v-3.4
				c-3.8,0-5.3-1.2-5.3-4V28.5c0-3.1-0.8-4.5-3.1-5.2c2.2-0.7,3.1-2.2,3.1-5.2V7.8c0-2.8,1.5-4,5.3-4V0.4h-1.5
				C6.1,0.4,3.9,2.2,3.9,6.6z"/>
			<path class="st1" d="M31.8,36.2c-0.6,0-1-0.5-1-1c0-0.5,0.3-0.9,0.8-1c-0.5-0.3-1-0.5-1.6-0.5c-1.6,0-2.9,1.3-2.9,2.9
				s1.3,2.9,2.9,2.9s2.9-1.3,2.9-2.9c0-0.3-0.1-0.6-0.2-0.9C32.5,35.9,32.2,36.1,31.8,36.2z"/>
			<path class="st1" d="M55.9,36.2c-0.6,0-1-0.5-1-1c0-0.5,0.3-0.9,0.8-1c-0.5-0.3-1-0.5-1.6-0.5c-1.6,0-2.9,1.3-2.9,2.9
				s1.3,2.9,2.9,2.9s2.9-1.3,2.9-2.9c0-0.3-0.1-0.6-0.2-0.9C56.6,35.9,56.3,36.1,55.9,36.2z"/>
		</g>
	</g>
	<g>
		<path class="st0" d="M10.3,61.8h4.3v5.1c-0.6,0.4-1.3,0.8-2,1c-0.7,0.2-1.4,0.3-2.2,0.3c-1,0-1.9-0.2-2.7-0.5
			c-0.8-0.3-1.5-0.7-2.1-1.3s-1-1.2-1.3-1.9S3.8,62.9,3.8,62s0.2-1.7,0.4-2.5c0.3-0.8,0.7-1.4,1.3-1.9s1.2-1,2-1.3s1.6-0.5,2.6-0.5
			c0.5,0,1,0,1.4,0.1c0.4,0.1,0.8,0.2,1.2,0.3c0.4,0.1,0.7,0.3,1,0.5c0.3,0.2,0.6,0.4,0.8,0.6l-0.8,1.2c-0.1,0.2-0.3,0.3-0.5,0.3
			c-0.2,0-0.4,0-0.6-0.2c-0.2-0.1-0.4-0.2-0.6-0.3c-0.2-0.1-0.4-0.2-0.6-0.2c-0.2-0.1-0.4-0.1-0.6-0.1c-0.2,0-0.5,0-0.8,0
			c-0.5,0-1,0.1-1.4,0.3s-0.8,0.4-1.1,0.8S7.1,60,6.9,60.4c-0.2,0.5-0.2,1-0.2,1.6c0,0.6,0.1,1.2,0.3,1.7c0.2,0.5,0.4,0.9,0.7,1.2
			c0.3,0.3,0.7,0.6,1.1,0.8S9.8,66,10.3,66c0.3,0,0.6,0,0.9-0.1c0.3-0.1,0.5-0.2,0.8-0.3v-1.8h-1.2c-0.2,0-0.3,0-0.4-0.1
			c-0.1-0.1-0.1-0.2-0.1-0.3L10.3,61.8L10.3,61.8z"/>
		<path class="st0" d="M18.1,64.2c0.1,0.7,0.3,1.2,0.6,1.6s0.8,0.5,1.4,0.5c0.3,0,0.5,0,0.8-0.1c0.2-0.1,0.4-0.2,0.6-0.2
			s0.3-0.2,0.5-0.2s0.3-0.1,0.4-0.1c0.2,0,0.4,0.1,0.5,0.2l0.7,0.9c-0.3,0.3-0.5,0.6-0.9,0.7c-0.3,0.2-0.6,0.3-0.9,0.4
			c-0.3,0.1-0.6,0.2-1,0.2s-0.6,0.1-0.9,0.1c-0.6,0-1.2-0.1-1.7-0.3s-1-0.5-1.4-0.9c-0.4-0.4-0.7-0.9-0.9-1.4s-0.3-1.2-0.3-2
			c0-0.6,0.1-1.1,0.3-1.6s0.5-1,0.8-1.3c0.4-0.4,0.8-0.7,1.3-0.9s1.1-0.3,1.8-0.3c0.6,0,1.1,0.1,1.5,0.3c0.5,0.2,0.9,0.4,1.2,0.8
			s0.6,0.7,0.8,1.2c0.2,0.5,0.3,1,0.3,1.7c0,0.2,0,0.3,0,0.5c0,0.1,0,0.2-0.1,0.3s-0.1,0.1-0.2,0.2c-0.1,0-0.2,0-0.3,0L18.1,64.2
			L18.1,64.2z M21.3,62.7c0-0.2,0-0.4-0.1-0.6s-0.1-0.4-0.2-0.5c-0.1-0.2-0.3-0.3-0.5-0.4c-0.2-0.1-0.4-0.1-0.7-0.1
			c-0.5,0-0.9,0.1-1.1,0.4c-0.3,0.3-0.5,0.7-0.5,1.2L21.3,62.7L21.3,62.7z"/>
		<path class="st0" d="M27,64.2c0.1,0.7,0.3,1.2,0.6,1.6s0.8,0.5,1.4,0.5c0.3,0,0.5,0,0.8-0.1c0.2-0.1,0.4-0.2,0.6-0.2
			s0.3-0.2,0.5-0.2s0.3-0.1,0.4-0.1c0.2,0,0.4,0.1,0.5,0.2l0.7,0.9c-0.3,0.3-0.5,0.6-0.9,0.7c-0.3,0.2-0.6,0.3-0.9,0.4
			c-0.3,0.1-0.6,0.2-1,0.2s-0.6,0.1-0.9,0.1c-0.6,0-1.2-0.1-1.7-0.3s-1-0.5-1.4-0.9c-0.4-0.4-0.7-0.9-0.9-1.4s-0.3-1.2-0.3-2
			c0-0.6,0.1-1.1,0.3-1.6s0.5-1,0.8-1.3c0.4-0.4,0.8-0.7,1.3-0.9s1.1-0.3,1.8-0.3c0.6,0,1.1,0.1,1.5,0.3c0.5,0.2,0.9,0.4,1.2,0.8
			c0.3,0.3,0.6,0.7,0.8,1.2c0.2,0.5,0.3,1,0.3,1.7c0,0.2,0,0.3,0,0.5c0,0.1,0,0.2-0.1,0.3s-0.1,0.1-0.2,0.2c-0.1,0-0.2,0-0.3,0
			L27,64.2L27,64.2z M30.2,62.7c0-0.2,0-0.4-0.1-0.6s-0.1-0.4-0.2-0.5c-0.1-0.2-0.3-0.3-0.5-0.4c-0.2-0.1-0.4-0.1-0.7-0.1
			c-0.5,0-0.9,0.1-1.1,0.4c-0.3,0.3-0.5,0.7-0.5,1.2L30.2,62.7L30.2,62.7z"/>
		<path class="st0" d="M36.3,55.7v6.9h0.4c0.2,0,0.3,0,0.4-0.1s0.2-0.1,0.2-0.2l1.6-2.4c0.1-0.1,0.2-0.2,0.3-0.3s0.3-0.1,0.5-0.1H42
			l-2.2,3c-0.2,0.3-0.5,0.5-0.7,0.7c0.1,0.1,0.2,0.2,0.3,0.3s0.2,0.3,0.3,0.4l2.4,4.1h-2.3c-0.2,0-0.4,0-0.5-0.1
			c-0.1-0.1-0.2-0.2-0.3-0.3l-1.6-3c-0.1-0.1-0.2-0.2-0.2-0.3c-0.1,0-0.2-0.1-0.4-0.1h-0.5V68h-2.5V55.7L36.3,55.7L36.3,55.7z"/>
		<path class="st1" d="M51,64.9c0.1,0,0.1,0,0.2,0c0.1,0,0.1,0.1,0.2,0.1l1.1,1.2c-0.5,0.6-1.1,1.1-1.8,1.4
			c-0.7,0.3-1.6,0.5-2.6,0.5c-0.9,0-1.7-0.2-2.4-0.5c-0.7-0.3-1.3-0.7-1.8-1.3s-0.9-1.2-1.2-1.9c-0.3-0.8-0.4-1.6-0.4-2.4
			s0.1-1.7,0.4-2.5c0.3-0.8,0.7-1.4,1.2-1.9s1.2-1,1.9-1.3s1.5-0.5,2.4-0.5c0.5,0,0.9,0,1.3,0.1c0.4,0.1,0.8,0.2,1.1,0.3
			c0.3,0.1,0.7,0.3,1,0.5c0.3,0.2,0.5,0.4,0.8,0.6l-0.9,1.3c-0.1,0.1-0.1,0.2-0.2,0.2c-0.1,0.1-0.2,0.1-0.3,0.1
			c-0.1,0-0.2,0-0.3-0.1c-0.1,0-0.2-0.1-0.3-0.2s-0.2-0.1-0.3-0.2c-0.1-0.1-0.3-0.1-0.4-0.2c-0.2-0.1-0.3-0.1-0.6-0.2
			s-0.5-0.1-0.8-0.1c-0.5,0-0.9,0.1-1.3,0.2c-0.4,0.2-0.7,0.4-1,0.7c-0.3,0.3-0.5,0.7-0.6,1.2c-0.2,0.5-0.2,1-0.2,1.6
			s0.1,1.2,0.2,1.6c0.2,0.5,0.4,0.9,0.7,1.2c0.3,0.3,0.6,0.6,1,0.7c0.4,0.2,0.8,0.2,1.2,0.2c0.2,0,0.5,0,0.7,0
			c0.2,0,0.4-0.1,0.6-0.1c0.2-0.1,0.3-0.1,0.5-0.2c0.2-0.1,0.3-0.2,0.5-0.4c0.1-0.1,0.1-0.1,0.2-0.1C50.8,64.9,50.9,64.8,51,64.9
			L51,64.9z"/>
		<path class="st1" d="M57.2,59.3c0.7,0,1.2,0.1,1.8,0.3s1,0.5,1.4,0.9c0.4,0.4,0.7,0.8,0.9,1.4s0.3,1.2,0.3,1.8
			c0,0.7-0.1,1.3-0.3,1.8s-0.5,1-0.9,1.4s-0.8,0.7-1.4,0.9s-1.1,0.3-1.8,0.3s-1.2-0.1-1.8-0.3c-0.5-0.2-1-0.5-1.4-0.9
			s-0.7-0.8-0.9-1.4c-0.2-0.5-0.3-1.2-0.3-1.8s0.1-1.3,0.3-1.8s0.5-1,0.9-1.4c0.4-0.4,0.8-0.7,1.4-0.9
			C55.9,59.4,56.5,59.3,57.2,59.3z M57.2,66.2c0.6,0,1-0.2,1.3-0.6c0.3-0.4,0.4-1,0.4-1.9s-0.1-1.5-0.4-1.9s-0.7-0.6-1.3-0.6
			s-1,0.2-1.3,0.6s-0.4,1-0.4,1.9c0,0.8,0.1,1.5,0.4,1.9C56.1,66,56.6,66.2,57.2,66.2z"/>
		<path class="st1" d="M70.5,55.7V68h-1.6c-0.3,0-0.5-0.1-0.6-0.4l-0.2-0.7c-0.2,0.2-0.3,0.3-0.5,0.5c-0.2,0.2-0.4,0.3-0.6,0.4
			c-0.2,0.1-0.4,0.2-0.7,0.2s-0.5,0.1-0.8,0.1c-0.4,0-0.8-0.1-1.2-0.3c-0.4-0.2-0.7-0.5-1-0.8c-0.3-0.4-0.5-0.8-0.6-1.4
			c-0.2-0.5-0.2-1.2-0.2-1.8c0-0.6,0.1-1.2,0.3-1.8c0.2-0.5,0.4-1,0.7-1.4c0.3-0.4,0.7-0.7,1.2-0.9c0.4-0.2,0.9-0.3,1.5-0.3
			c0.4,0,0.8,0.1,1.1,0.2c0.3,0.1,0.6,0.3,0.8,0.5v-4.3L70.5,55.7L70.5,55.7z M67.9,61.7c-0.2-0.2-0.4-0.4-0.6-0.5
			c-0.2-0.1-0.5-0.1-0.7-0.1s-0.4,0-0.7,0.1c-0.2,0.1-0.4,0.2-0.5,0.5s-0.3,0.5-0.3,0.8C65,62.9,65,63.3,65,63.7s0,0.8,0.1,1.1
			c0.1,0.3,0.2,0.6,0.3,0.7c0.1,0.2,0.3,0.3,0.4,0.4c0.2,0.1,0.3,0.1,0.6,0.1c0.2,0,0.3,0,0.5-0.1c0.2,0,0.3-0.1,0.4-0.2
			c0.1-0.1,0.2-0.2,0.4-0.2s0.2-0.2,0.3-0.3L67.9,61.7L67.9,61.7z"/>
		<path class="st1" d="M74.3,64.2c0.1,0.7,0.3,1.2,0.7,1.6s0.8,0.5,1.4,0.5c0.3,0,0.6,0,0.8-0.1s0.4-0.2,0.6-0.2s0.3-0.2,0.5-0.2
			s0.3-0.1,0.4-0.1c0.2,0,0.4,0.1,0.5,0.2l0.7,0.9c-0.3,0.3-0.6,0.6-0.8,0.7c-0.3,0.2-0.6,0.3-0.9,0.4c-0.3,0.1-0.6,0.2-1,0.2
			s-0.6,0.1-0.9,0.1c-0.6,0-1.2-0.1-1.7-0.3s-1-0.5-1.4-0.9c-0.4-0.4-0.7-0.9-0.9-1.4s-0.3-1.2-0.3-2c0-0.6,0.1-1.1,0.3-1.6
			s0.5-1,0.8-1.3c0.4-0.4,0.8-0.7,1.3-0.9s1.1-0.3,1.8-0.3c0.6,0,1.1,0.1,1.6,0.3c0.5,0.2,0.9,0.4,1.2,0.8c0.3,0.3,0.6,0.7,0.8,1.2
			c0.2,0.5,0.3,1,0.3,1.7c0,0.2,0,0.3,0,0.5c0,0.1-0.1,0.2-0.1,0.3c0,0.1-0.1,0.1-0.2,0.2c-0.1,0-0.2,0-0.3,0L74.3,64.2L74.3,64.2z
			 M77.5,62.7c0-0.2,0-0.4-0.1-0.6s-0.1-0.4-0.2-0.5c-0.1-0.2-0.3-0.3-0.5-0.4c-0.2-0.1-0.4-0.1-0.7-0.1c-0.5,0-0.9,0.1-1.1,0.4
			s-0.4,0.7-0.5,1.2L77.5,62.7L77.5,62.7z"/>
	</g>
</g>
</svg>
